<?xml version="1.0" encoding="UTF-8"?>
<svg xmlns="http://www.w3.org/2000/svg" width="1376" height="1150" viewBox="0 0 1376 1150">
  <style>
    text { font-family: 'Lato', 'Helvetica Neue', Arial, sans-serif; }
    .edge-path { fill: none; stroke-linecap: round; stroke-linejoin: round; }
  </style>
  <rect width="100%" height="100%" fill="white"/>
  <g class="title">
    <text x="688.0" y="45.0" text-anchor="middle" dominant-baseline="central" font-family="Lato, 'Helvetica Neue', Arial, sans-serif" font-size="18.0" fill="rgb(30,30,30)">Sequence Feature Coverage</text>
  </g>
  <g class="fragments">
    <rect x="40.0" y="320.0" width="1296.0" height="624.0" rx="3.0" ry="3.0" fill="rgb(240,240,245)" fill-opacity="0.24" stroke="rgb(100,100,100)" stroke-width="1.5"/>
    <polygon points="40.0,320.0 78.5,320.0 78.5,338.0 72.5,344.0 40.0,344.0" fill="rgb(220,220,230)" stroke="rgb(100,100,100)" stroke-width="1.5"/>
    <text x="48.0" y="332.0" text-anchor="start" dominant-baseline="central" font-family="Lato, 'Helvetica Neue', Arial, sans-serif" font-size="12.0" fill="rgb(60,60,60)">alt</text>
    <text x="88.5" y="332.0" text-anchor="start" dominant-baseline="central" font-family="Lato, 'Helvetica Neue', Arial, sans-serif" font-size="12.0" fill="rgb(60,60,60)">[Job can be processed]</text>
    <line x1="40.0" y1="909.0" x2="1336.0" y2="909.0" fill="none" stroke="rgb(100,100,100)" stroke-width="1.5" stroke-dasharray="6,4"/>
    <text x="52.0" y="925.0" text-anchor="start" dominant-baseline="central" font-family="Lato, 'Helvetica Neue', Arial, sans-serif" font-size="12.0" fill="rgb(60,60,60)">[Validation failed]</text>
    <rect x="788.0" y="470.0" width="200.0" height="94.0" rx="3.0" ry="3.0" fill="rgb(240,240,245)" fill-opacity="0.24" stroke="rgb(100,100,100)" stroke-width="1.5"/>
    <polygon points="788.0,470.0 834.0,470.0 834.0,488.0 828.0,494.0 788.0,494.0" fill="rgb(220,220,230)" stroke="rgb(100,100,100)" stroke-width="1.5"/>
    <text x="796.0" y="482.0" text-anchor="start" dominant-baseline="central" font-family="Lato, 'Helvetica Neue', Arial, sans-serif" font-size="12.0" fill="rgb(60,60,60)">loop</text>
    <text x="844.0" y="482.0" text-anchor="start" dominant-baseline="central" font-family="Lato, 'Helvetica Neue', Arial, sans-serif" font-size="12.0" fill="rgb(60,60,60)">[Poll until complete]</text>
    <rect x="368.0" y="650.0" width="620.0" height="94.0" rx="3.0" ry="3.0" fill="rgb(230,245,255)" fill-opacity="0.50" stroke="rgb(100,100,100)" stroke-width="1.5"/>
    <polygon points="368.0,650.0 414.0,650.0 414.0,668.0 408.0,674.0 368.0,674.0" fill="rgb(220,220,230)" stroke="rgb(100,100,100)" stroke-width="1.5"/>
    <text x="376.0" y="662.0" text-anchor="start" dominant-baseline="central" font-family="Lato, 'Helvetica Neue', Arial, sans-serif" font-size="12.0" fill="rgb(60,60,60)">rect</text>
    <text x="424.0" y="662.0" text-anchor="start" dominant-baseline="central" font-family="Lato, 'Helvetica Neue', Arial, sans-serif" font-size="12.0" fill="rgb(60,60,60)">[Highlight response window]</text>
  </g>
  <g class="lifelines">
    <line x1="110.0" y1="110.0" x2="110.0" y2="1080.0" fill="none" stroke="rgb(140,140,140)" stroke-width="1.5" stroke-dasharray="6,4"/>
    <line x1="452.0" y1="110.0" x2="452.0" y2="1080.0" fill="none" stroke="rgb(140,140,140)" stroke-width="1.5" stroke-dasharray="6,4"/>
    <line x1="888.0" y1="110.0" x2="888.0" y2="1080.0" fill="none" stroke="rgb(140,140,140)" stroke-width="1.5" stroke-dasharray="6,4"/>
    <line x1="1260.0" y1="110.0" x2="1260.0" y2="1080.0" fill="none" stroke="rgb(140,140,140)" stroke-width="1.5" stroke-dasharray="6,4"/>
  </g>
  <g class="activations">
    <rect x="444.0" y="192.0" width="16.0" height="542.0" fill="rgb(173,216,230)" fill-opacity="0.71" stroke="rgb(70,130,180)" stroke-width="1.5"/>
    <rect x="880.0" y="242.0" width="16.0" height="792.0" fill="rgb(173,216,230)" fill-opacity="0.71" stroke="rgb(70,130,180)" stroke-width="1.5"/>
  </g>
  <g class="messages">
    <line x1="110.0" y1="192.0" x2="452.0" y2="192.0" fill="none" stroke="rgb(60,60,60)" stroke-width="1.5"/>
    <polygon points="452.0,192.0 444.0,195.6 444.0,188.4" fill="rgb(60,60,60)" stroke-width="0.0"/>
    <text x="281.0" y="184.0" text-anchor="middle" dominant-baseline="central" font-family="Lato, 'Helvetica Neue', Arial, sans-serif" font-size="13.0" fill="rgb(40,40,40)">Submit job request</text>
    <line x1="452.0" y1="242.0" x2="888.0" y2="242.0" fill="none" stroke="rgb(60,60,60)" stroke-width="1.5"/>
    <polygon points="888.0,242.0 880.0,245.6 880.0,238.4" fill="rgb(60,60,60)" stroke-width="0.0"/>
    <text x="670.0" y="234.0" text-anchor="middle" dominant-baseline="central" font-family="Lato, 'Helvetica Neue', Arial, sans-serif" font-size="13.0" fill="rgb(40,40,40)">Start processing</text>
    <line x1="888.0" y1="404.0" x2="1260.0" y2="404.0" fill="none" stroke="rgb(60,60,60)" stroke-width="1.5"/>
    <polygon points="1260.0,404.0 1252.0,407.6 1252.0,400.4" fill="rgb(60,60,60)" stroke-width="0.0"/>
    <text x="1074.0" y="396.0" text-anchor="middle" dominant-baseline="central" font-family="Lato, 'Helvetica Neue', Arial, sans-serif" font-size="13.0" fill="rgb(40,40,40)">Insert pending record</text>
    <line x1="1260.0" y1="454.0" x2="888.0" y2="454.0" fill="none" stroke="rgb(60,60,60)" stroke-width="1.5" stroke-dasharray="6,4"/>
    <polygon points="888.0,454.0 896.0,450.4 896.0,457.6" fill="rgb(60,60,60)" stroke-width="0.0"/>
    <text x="1074.0" y="446.0" text-anchor="middle" dominant-baseline="central" font-family="Lato, 'Helvetica Neue', Arial, sans-serif" font-size="13.0" fill="rgb(40,40,40)">Record stored</text>
    <polyline points="888.0,554.0 928.0,554.0 928.0,584.0 888.0,584.0" fill="none" stroke="rgb(60,60,60)" stroke-width="1.5" stroke-linecap="round" stroke-linejoin="round"/>
    <polygon points="888.0,584.0 896.0,580.4 896.0,587.6" fill="rgb(60,60,60)" stroke-width="0.0"/>
    <text x="936.0" y="569.0" text-anchor="start" dominant-baseline="central" font-family="Lato, 'Helvetica Neue', Arial, sans-serif" font-size="13.0" fill="rgb(40,40,40)">Check job state</text>
    <line x1="888.0" y1="734.0" x2="452.0" y2="734.0" fill="none" stroke="rgb(60,60,60)" stroke-width="1.5" stroke-dasharray="6,4"/>
    <polygon points="452.0,734.0 460.0,730.4 460.0,737.6" fill="rgb(60,60,60)" stroke-width="0.0"/>
    <text x="670.0" y="726.0" text-anchor="middle" dominant-baseline="central" font-family="Lato, 'Helvetica Neue', Arial, sans-serif" font-size="13.0" fill="rgb(40,40,40)">Job completed</text>
    <line x1="452.0" y1="834.0" x2="110.0" y2="834.0" fill="none" stroke="rgb(60,60,60)" stroke-width="1.5" stroke-dasharray="6,4"/>
    <polygon points="110.0,834.0 118.0,830.4 118.0,837.6" fill="rgb(60,60,60)" stroke-width="0.0"/>
    <text x="281.0" y="826.0" text-anchor="middle" dominant-baseline="central" font-family="Lato, 'Helvetica Neue', Arial, sans-serif" font-size="13.0" fill="rgb(40,40,40)">Success response</text>
    <line x1="452.0" y1="934.0" x2="110.0" y2="934.0" fill="none" stroke="rgb(60,60,60)" stroke-width="1.5" stroke-dasharray="6,4"/>
    <polygon points="110.0,934.0 118.0,930.4 118.0,937.6" fill="rgb(60,60,60)" stroke-width="0.0"/>
    <text x="281.0" y="926.0" text-anchor="middle" dominant-baseline="central" font-family="Lato, 'Helvetica Neue', Arial, sans-serif" font-size="13.0" fill="rgb(40,40,40)">Validation error</text>
  </g>
  <g class="notes">
    <rect x="168.0" y="104.0" width="212.0" height="52.0" fill="rgb(255,255,210)" stroke="rgb(200,180,80)" stroke-width="1.0"/>
    <polygon points="372.0,104.0 380.0,112.0 372.0,112.0" fill="rgb(200,180,80)" stroke="rgb(200,180,80)" stroke-width="0.5"/>
    <text text-anchor="middle" font-family="Lato, 'Helvetica Neue', Arial, sans-serif" font-size="12.0" fill="rgb(50,50,50)">
      <tspan x="274.0" y="122.0" dominant-baseline="central">User starts the workflow</tspan>
      <tspan x="274.0" y="138.0" dominant-baseline="central">from the published UI</tspan>
    </text>
    <rect x="540.0" y="266.0" width="260.0" height="52.0" fill="rgb(255,255,210)" stroke="rgb(200,180,80)" stroke-width="1.0"/>
    <polygon points="792.0,266.0 800.0,274.0 792.0,274.0" fill="rgb(200,180,80)" stroke="rgb(200,180,80)" stroke-width="0.5"/>
    <text text-anchor="middle" font-family="Lato, 'Helvetica Neue', Arial, sans-serif" font-size="12.0" fill="rgb(50,50,50)">
      <tspan x="670.0" y="284.0" dominant-baseline="central">Request and worker stay active</tspan>
      <tspan x="670.0" y="300.0" dominant-baseline="central">while the job is running</tspan>
    </text>
    <rect x="976.0" y="1008.0" width="220.0" height="52.0" fill="rgb(255,255,210)" stroke="rgb(200,180,80)" stroke-width="1.0"/>
    <polygon points="1188.0,1008.0 1196.0,1016.0 1188.0,1016.0" fill="rgb(200,180,80)" stroke="rgb(200,180,80)" stroke-width="0.5"/>
    <text text-anchor="middle" font-family="Lato, 'Helvetica Neue', Arial, sans-serif" font-size="12.0" fill="rgb(50,50,50)">
      <tspan x="1086.0" y="1026.0" dominant-baseline="central">Storage note</tspan>
      <tspan x="1086.0" y="1042.0" dominant-baseline="central">kept outside the fragment</tspan>
    </text>
  </g>
  <g class="participants">
    <ellipse cx="110.0" cy="76.0" rx="6.0" ry="6.0" fill="none" stroke="rgb(70,130,180)" stroke-width="2.0"/>
    <line x1="110.0" y1="82.0" x2="110.0" y2="98.0" fill="none" stroke="rgb(70,130,180)" stroke-width="2.0"/>
    <line x1="98.0" y1="86.8" x2="122.0" y2="86.8" fill="none" stroke="rgb(70,130,180)" stroke-width="2.0"/>
    <line x1="110.0" y1="98.0" x2="102.0" y2="108.0" fill="none" stroke="rgb(70,130,180)" stroke-width="2.0"/>
    <line x1="110.0" y1="98.0" x2="118.0" y2="108.0" fill="none" stroke="rgb(70,130,180)" stroke-width="2.0"/>
    <text x="110.0" y="122.0" text-anchor="middle" dominant-baseline="central" font-family="Lato, 'Helvetica Neue', Arial, sans-serif" font-size="14.0" fill="rgb(30,30,30)">User</text>
    <ellipse cx="110.0" cy="1086.0" rx="6.0" ry="6.0" fill="none" stroke="rgb(70,130,180)" stroke-width="2.0"/>
    <line x1="110.0" y1="1092.0" x2="110.0" y2="1108.0" fill="none" stroke="rgb(70,130,180)" stroke-width="2.0"/>
    <line x1="98.0" y1="1096.8" x2="122.0" y2="1096.8" fill="none" stroke="rgb(70,130,180)" stroke-width="2.0"/>
    <line x1="110.0" y1="1108.0" x2="102.0" y2="1118.0" fill="none" stroke="rgb(70,130,180)" stroke-width="2.0"/>
    <line x1="110.0" y1="1108.0" x2="118.0" y2="1118.0" fill="none" stroke="rgb(70,130,180)" stroke-width="2.0"/>
    <text x="110.0" y="1132.0" text-anchor="middle" dominant-baseline="central" font-family="Lato, 'Helvetica Neue', Arial, sans-serif" font-size="14.0" fill="rgb(30,30,30)">User</text>
    <rect x="388.0" y="70.0" width="128.0" height="40.0" rx="5.0" ry="5.0" fill="rgb(173,216,230)" stroke="rgb(70,130,180)" stroke-width="2.0"/>
    <text x="452.0" y="90.0" text-anchor="middle" dominant-baseline="central" font-family="Lato, 'Helvetica Neue', Arial, sans-serif" font-size="14.0" fill="rgb(30,30,30)">Public API</text>
    <rect x="388.0" y="1080.0" width="128.0" height="40.0" rx="5.0" ry="5.0" fill="rgb(173,216,230)" stroke="rgb(70,130,180)" stroke-width="2.0"/>
    <text x="452.0" y="1100.0" text-anchor="middle" dominant-baseline="central" font-family="Lato, 'Helvetica Neue', Arial, sans-serif" font-size="14.0" fill="rgb(30,30,30)">Public API</text>
    <rect x="808.0" y="70.0" width="160.0" height="40.0" rx="5.0" ry="5.0" fill="rgb(173,216,230)" stroke="rgb(70,130,180)" stroke-width="2.0"/>
    <text x="888.0" y="90.0" text-anchor="middle" dominant-baseline="central" font-family="Lato, 'Helvetica Neue', Arial, sans-serif" font-size="14.0" fill="rgb(30,30,30)">Worker Service</text>
    <rect x="808.0" y="1080.0" width="160.0" height="40.0" rx="5.0" ry="5.0" fill="rgb(173,216,230)" stroke="rgb(70,130,180)" stroke-width="2.0"/>
    <text x="888.0" y="1100.0" text-anchor="middle" dominant-baseline="central" font-family="Lato, 'Helvetica Neue', Arial, sans-serif" font-size="14.0" fill="rgb(30,30,30)">Worker Service</text>
    <rect x="1204.0" y="70.0" width="112.0" height="40.0" rx="5.0" ry="5.0" fill="rgb(173,216,230)" stroke="rgb(70,130,180)" stroke-width="2.0"/>
    <text x="1260.0" y="90.0" text-anchor="middle" dominant-baseline="central" font-family="Lato, 'Helvetica Neue', Arial, sans-serif" font-size="14.0" fill="rgb(30,30,30)">Database</text>
    <rect x="1204.0" y="1080.0" width="112.0" height="40.0" rx="5.0" ry="5.0" fill="rgb(173,216,230)" stroke="rgb(70,130,180)" stroke-width="2.0"/>
    <text x="1260.0" y="1100.0" text-anchor="middle" dominant-baseline="central" font-family="Lato, 'Helvetica Neue', Arial, sans-serif" font-size="14.0" fill="rgb(30,30,30)">Database</text>
  </g>
</svg>
